<svg xmlns="http://www.w3.org/2000/svg" viewBox="0 0 512 512" fill="#FFFFFF">
  <path d="M184 0C214.9 0 240 25.07 240 56V456C240 486.9 214.9 512 184 512H56C25.07 512 0 486.9 0 456V56C0 25.07 25.07 0 56 0H184zM184 56H56V456H184V56zM384 56C384 25.07 409.1 0 440 0H472C502.9 0 528 25.07 528 56V184C528 214.9 502.9 240 472 240H384V56zM528 304C528 273.1 502.9 248 472 248H440C409.1 248 384 273.1 384 304V456C384 486.9 409.1 512 440 512H472C502.9 512 528 486.9 528 456V304zM472 192H440V56H472V192zM472 456H440V304H472V456zM296 176C296 145.1 270.9 120 240 120V376C270.9 376 296 350.9 296 320V176zM352 128C352 110.3 337.7 96 320 96C302.3 96 288 110.3 288 128V368C288 385.7 302.3 400 320 400C337.7 400 352 385.7 352 368V128z"/>
</svg>